# xmcd
#
# Track frame offsets:
#	150
#	20110
#	38663
#	59315
#	81653
#	96622
#	104528
#	119165
#	132994
#	143332
#	165754
#	179999
#	193332
#	205481
#	220271
#
# Disc length: 3079 seconds
# Revision: 0
# Processed by: cddbd v1.5.2PL0 Copyright (c) Steve Scherf et al.
# Submitted via: dBpowerAMP V12.0
#
DISCID=ef0c050f
DTITLE=Giles Hedley - Rain Is Such a Lonesome Sound
DYEAR=2014
DGENRE=Blues
TTITLE0=Rain Is Such A Lonesome Sound
TTITLE1=Death Letter Blues
TTITLE2=Winding Boy Blues
TTITLE3=Why You Cryin'?
TTITLE4=Milk Cow Blues
TTITLE5=Emilia Buck
TTITLE6=Terrplace Blues
TTITLE7=Let Your Light From The Lighthouse
TTITLE8=Sidevalve Stroll
TTITLE9=Shadows Falling
TTITLE10=You're Going To Miss Me WHen I'm Gone
TTITLE11=Glad Rag Doll
TTITLE12=Homesick And Lonesome Blues
TTITLE13=Death Ain't Got No Mercy
TTITLE14=Jealous-Hearted Me
EXTD=
EXTT0=
EXTT1=
EXTT2=
EXTT3=
EXTT4=
EXTT5=
EXTT6=
EXTT7=
EXTT8=
EXTT9=
EXTT10=
EXTT11=
EXTT12=
EXTT13=
EXTT14=
PLAYORDER=
